<svg width="153" height="149" viewBox="0 0 153 149" fill="none" xmlns="http://www.w3.org/2000/svg">
<path fill-rule="evenodd" clip-rule="evenodd" d="M101.577 62.4509C101.724 62.2329 102.441 61.1787 103.149 60.1183C105.795 56.1506 106.843 51.6465 107.134 47.0071C107.454 41.8975 105.367 37.7117 101.387 34.4782C98.9853 32.5268 96.2886 32.0165 93.2983 32.6943C91.3867 33.1286 89.7085 34.0303 88.1774 35.188C86.2655 36.633 84.4591 38.2274 83.0857 40.208C79.9066 44.7908 76.7424 49.3727 74.7402 54.6552C71.7082 62.6555 70.4205 70.9505 70.2142 79.4539C70.1992 80.0662 70.7711 80.6776 71.4088 80.7157C75.9186 80.9772 80.309 80.3767 84.5535 78.8068C84.9985 78.6425 85.4266 78.4066 85.8276 78.15C91.9231 74.2545 97.6014 69.9257 101.577 62.4509M104.489 63.8903C100.326 71.8115 94.2346 76.6447 87.5244 80.8384C85.0289 82.3975 82.2446 83.1044 79.3667 83.4369C76.8295 83.7291 74.2772 83.8917 71.7324 84.1184C71.0881 84.1759 70.5533 84.7488 70.5827 85.4079C70.6333 86.524 70.6574 87.6488 70.8198 88.7511C71.5664 93.8335 72.8704 98.7708 75.0082 103.45C78.1029 110.225 82.4934 116.066 88.0191 121.05C89.5024 122.388 90.2582 122.44 91.8148 121.333C94.0266 119.759 96.2035 118.136 98.3958 116.537C98.9112 116.161 99.4112 115.757 99.9549 115.427C100.94 114.831 102.274 115.513 102.524 116.715C102.59 117.027 102.654 117.34 102.691 117.657C103.307 122.901 103.596 128.165 103.628 133.442C103.637 134.871 103.469 136.316 103.232 137.728C102.856 139.978 101.439 140.925 99.0886 140.624C98.4564 140.544 97.8264 140.419 97.2034 140.279C91.1259 138.912 85.0507 137.538 78.9763 136.16C78.6666 136.09 78.368 135.97 78.066 135.865C76.6782 135.381 76.1634 133.848 77.096 132.802C77.7281 132.092 78.4391 131.436 79.187 130.852C80.9487 129.475 82.7743 128.183 84.5363 126.809C86.381 125.37 86.4662 124.482 84.7937 123.008C81.7747 120.347 79.3382 117.206 76.937 114.003C73.2341 109.065 70.8146 103.507 69.0486 97.6825C68.0815 94.4936 67.7361 91.116 67.1438 87.8167C67.0024 87.0338 66.9691 86.2285 66.9229 85.4314C66.8501 84.1677 66.2364 83.3376 65.0188 82.9771C64.4069 82.7971 63.791 82.6229 63.1671 82.4892C56.9823 81.1666 51.5011 78.2752 46.1301 75.0541C37.5416 69.904 30.2893 63.2077 23.5472 55.9051C22.7004 54.9878 22.1324 53.8037 21.4854 52.7136C21.1875 52.211 21.5723 51.2041 22.1042 51.113C22.544 51.0368 23.0741 51.0591 23.465 51.2468C23.8717 51.4415 24.1867 51.8614 24.4929 52.2248C31.9658 61.1156 40.6171 68.5938 50.818 74.2199C54.8854 76.4641 59.0538 78.4603 63.6639 79.3492C64.1324 79.4396 64.5992 79.5398 65.0703 79.6175C65.8107 79.7394 66.41 79.3909 66.4963 78.7194C66.6982 77.1379 66.9234 75.554 67.0163 73.9642C67.4597 66.3915 69.0896 59.0715 72.1297 52.143C74.7638 46.142 77.8775 40.3776 82.5685 35.635C84.1506 34.0352 85.8546 32.6033 87.7447 31.3945C89.7987 30.0804 92.0478 29.296 94.48 29.0754C97.2796 28.8215 99.8906 29.3945 102.225 30.9994C107.95 34.9333 110.891 40.3959 110.433 47.3226C110.095 52.4407 108.866 57.4223 105.906 61.7887C105.28 62.7145 104.656 63.6433 104.489 63.8903" fill="black"/>
</svg>
