<svg width="154" height="153" viewBox="0 0 154 153" fill="none" xmlns="http://www.w3.org/2000/svg">
<path fill-rule="evenodd" clip-rule="evenodd" d="M103.209 67.449C103.378 67.2475 104.201 66.274 105.016 65.2935C108.062 61.6241 109.575 57.2542 110.35 52.6707C111.202 47.6225 109.564 43.2415 105.943 39.6096C103.759 37.4178 101.131 36.6285 98.0859 36.99C96.1393 37.2221 94.3761 37.9435 92.7323 38.9348C90.6799 40.172 88.7167 41.5689 87.1438 43.3951C83.5031 47.6204 79.8773 51.8465 77.3339 56.8908C73.4822 64.5303 71.3345 72.6453 70.2404 81.0805C70.1616 81.6879 70.6664 82.3557 71.2967 82.4603C75.7544 83.1918 80.1835 83.0534 84.5689 81.9358C85.0286 81.8189 85.479 81.629 85.9047 81.4158C92.3739 78.1788 98.4737 74.4673 103.209 67.449M105.954 69.1849C100.986 76.6275 94.423 80.7976 87.3111 84.2668C84.6664 85.5565 81.8234 85.9685 78.9265 85.9984C76.3727 86.0237 73.8174 85.9187 71.2628 85.8781C70.616 85.868 70.0242 86.3818 69.9846 87.0405C69.9182 88.1557 69.8247 89.2769 69.871 90.3901C70.0822 95.5226 70.863 100.569 72.4999 105.446C74.8695 112.508 78.6255 118.775 83.5999 124.31C84.9352 125.795 85.6813 125.927 87.3453 124.988C89.7094 123.654 92.044 122.268 94.3915 120.906C94.9434 120.586 95.4828 120.237 96.0581 119.965C97.0998 119.475 98.3554 120.294 98.4785 121.514C98.5113 121.832 98.5427 122.15 98.5465 122.469C98.6101 127.748 98.3482 133.014 97.8281 138.265C97.6878 139.688 97.3691 141.107 96.9865 142.487C96.3774 144.685 94.869 145.479 92.5627 144.934C91.9424 144.788 91.3288 144.598 90.7239 144.393C84.8226 142.398 78.9243 140.397 73.0272 138.392C72.7265 138.29 72.4421 138.139 72.1527 138.003C70.8231 137.377 70.4714 135.799 71.5082 134.855C72.211 134.215 72.9867 133.638 73.7916 133.135C75.6875 131.95 77.6382 130.856 79.5342 129.673C81.5191 128.435 81.6967 127.561 80.1875 125.92C77.4632 122.958 75.3683 119.58 73.3151 116.143C70.1486 110.845 68.3234 105.064 67.1758 99.0875C66.5474 95.8149 66.557 92.4197 66.3128 89.0766C66.254 88.2832 66.305 87.4788 66.3424 86.6812C66.4021 85.4168 65.8785 84.5271 64.7053 84.0413C64.1155 83.7983 63.5212 83.5607 62.9147 83.3625C56.9021 81.4007 51.7531 77.9522 46.7482 74.1873C38.7451 68.1677 32.2325 60.75 26.2906 52.7827C25.5444 51.7819 25.1032 50.5449 24.5737 49.3931C24.33 48.8622 24.818 47.901 25.3565 47.866C25.8018 47.8362 26.3267 47.9138 26.6959 48.1413C27.0799 48.3774 27.3493 48.828 27.6159 49.2214C34.1185 58.8446 41.9407 67.1861 51.4976 73.8477C55.3082 76.5048 59.2451 78.9257 63.737 80.2916C64.1935 80.4306 64.6473 80.579 65.1077 80.7055C65.8313 80.9041 66.4637 80.6202 66.6197 79.9614C66.9858 78.4096 67.3753 76.858 67.6339 75.2866C68.8665 67.8017 71.2526 60.6922 75.0003 54.1194C78.2472 48.4266 81.9464 43.0193 87.1074 38.793C88.8481 37.3674 90.6925 36.1214 92.6985 35.1169C94.8786 34.0247 97.1974 33.4797 99.6394 33.5145C102.45 33.5546 104.987 34.3974 107.141 36.2375C112.423 40.7483 114.778 46.4884 113.597 53.3292C112.726 58.384 110.984 63.2098 107.584 67.243C106.864 68.0981 106.146 68.9566 105.954 69.1849" fill="black"/>
</svg>
